<?xml version="1.0" encoding="UTF-8" standalone="no"?>
<!-- Created with Inkscape (http://www.inkscape.org/) -->

<svg
   xmlns:dc="http://purl.org/dc/elements/1.1/"
   xmlns:cc="http://creativecommons.org/ns#"
   xmlns:rdf="http://www.w3.org/1999/02/22-rdf-syntax-ns#"
   xmlns:svg="http://www.w3.org/2000/svg"
   xmlns="http://www.w3.org/2000/svg"
   xmlns:sodipodi="http://sodipodi.sourceforge.net/DTD/sodipodi-0.dtd"
   xmlns:inkscape="http://www.inkscape.org/namespaces/inkscape"
   width="145.39462mm"
   height="145.39462mm"
   viewBox="0 0 145.39462 145.39462"
   version="1.1"
   id="svg8"
   sodipodi:docname="option_base_composition.svg"
   inkscape:version="0.92.5 (2060ec1f9f, 2020-04-08)">
  <defs
     id="defs2" />
  <sodipodi:namedview
     id="base"
     pagecolor="#ffffff"
     bordercolor="#666666"
     borderopacity="1.0"
     inkscape:pageopacity="0.0"
     inkscape:pageshadow="2"
     inkscape:zoom="0.98994949"
     inkscape:cx="827.11425"
     inkscape:cy="-58.425561"
     inkscape:document-units="mm"
     inkscape:current-layer="layer1"
     showgrid="false"
     inkscape:window-width="4240"
     inkscape:window-height="2338"
     inkscape:window-x="3504"
     inkscape:window-y="54"
     inkscape:window-maximized="1"
     inkscape:lockguides="true" />
  <metadata
     id="metadata5">
    <rdf:RDF>
      <cc:Work
         rdf:about="">
        <dc:format>image/svg+xml</dc:format>
        <dc:type
           rdf:resource="http://purl.org/dc/dcmitype/StillImage" />
        <dc:title></dc:title>
      </cc:Work>
    </rdf:RDF>
  </metadata>
  <g
     inkscape:label="Layer 1"
     inkscape:groupmode="layer"
     id="layer1"
     transform="translate(186.52388,475.04721)">
    <g
       aria-label="A"
       style="font-style:normal;font-weight:normal;font-size:35.00642014px;line-height:1.25;font-family:sans-serif;letter-spacing:0px;word-spacing:0px;fill:#8bc440;fill-opacity:1;stroke:none;stroke-width:0.87516046"
       id="text867"
       transform="matrix(0.94329312,0,0,0.94329312,-4.2949631,-21.075358)">
      <path
         d="m -149.55539,-358.80239 h -8.81997 l -1.21361,4.1365 h -7.91404 l 9.41823,-25.05831 h 8.44393 l 9.41823,25.05831 h -8.10207 z m -1.62383,-5.41848 -2.76906,-9.008 -2.75197,9.008 z"
         style="font-style:normal;font-variant:normal;font-weight:normal;font-stretch:normal;font-size:35.00642014px;font-family:'Arial Black';-inkscape-font-specification:'Arial Black, Normal';font-variant-ligatures:normal;font-variant-caps:normal;font-variant-numeric:normal;font-feature-settings:normal;text-align:start;writing-mode:lr-tb;text-anchor:start;fill:#8bc440;fill-opacity:1;stroke-width:0.87516046"
         id="path1087"
         inkscape:connector-curvature="0" />
    </g>
    <g
       aria-label="T"
       style="font-style:normal;font-weight:normal;font-size:35.00642014px;line-height:1.25;font-family:sans-serif;letter-spacing:0px;word-spacing:0px;fill:#ef4f24;fill-opacity:1;stroke:none;stroke-width:0.87516046"
       id="text867-4"
       transform="matrix(0.94329312,0,0,0.94329312,-4.0103595,-19.344361)">
      <path
         d="m -165.11312,-455.90493 h 23.53703 v 6.18766 h -7.89695 v 18.87065 h -7.74312 v -18.87065 h -7.89696 z"
         style="font-style:normal;font-variant:normal;font-weight:normal;font-stretch:normal;font-size:35.00642014px;font-family:'Arial Black';-inkscape-font-specification:'Arial Black, Normal';font-variant-ligatures:normal;font-variant-caps:normal;font-variant-numeric:normal;font-feature-settings:normal;text-align:start;writing-mode:lr-tb;text-anchor:start;fill:#ef4f24;fill-opacity:1;stroke-width:0.87516046"
         id="path1081"
         inkscape:connector-curvature="0" />
    </g>
    <circle
       transform="rotate(-45)"
       r="30.185841"
       cy="-414.5321"
       cx="204.29617"
       id="path815-7-4-7-4"
       style="fill:none;fill-opacity:1;stroke:#ef4f24;stroke-width:4.60704327;stroke-linecap:round;stroke-linejoin:round;stroke-miterlimit:4;stroke-dasharray:none;stroke-dashoffset:0;stroke-opacity:1" />
    <circle
       transform="rotate(-45)"
       r="30.185844"
       cy="-365.1171"
       cx="253.55176"
       id="path815-7-4-7-4-7"
       style="fill:none;fill-opacity:1;stroke:#00aad4;stroke-width:4.60704327;stroke-linecap:round;stroke-linejoin:round;stroke-miterlimit:4;stroke-dasharray:none;stroke-dashoffset:0;stroke-opacity:1" />
    <circle
       transform="rotate(-45)"
       r="30.185841"
       cy="-365.48978"
       cx="154.16005"
       id="path815-7-4-7-4-1"
       style="fill:none;fill-opacity:1;stroke:#8bc440;stroke-width:4.60704327;stroke-linecap:round;stroke-linejoin:round;stroke-miterlimit:4;stroke-dasharray:none;stroke-dashoffset:0;stroke-opacity:1" />
    <circle
       transform="rotate(-45)"
       r="30.185844"
       cy="-316.24094"
       cx="204.67563"
       id="path815-7-4-7-4-7-7"
       style="fill:none;fill-opacity:1;stroke:#ffc113;stroke-width:4.60704327;stroke-linecap:round;stroke-linejoin:round;stroke-miterlimit:4;stroke-dasharray:none;stroke-dashoffset:0;stroke-opacity:1" />
    <flowRoot
       transform="matrix(0.24957964,0,0,0.24957964,-182.42039,-470.93401)"
       style="font-style:normal;font-variant:normal;font-weight:normal;font-stretch:normal;font-size:16px;line-height:1.25;font-family:sans-serif;-inkscape-font-specification:'sans-serif, Normal';font-variant-ligatures:normal;font-variant-caps:normal;font-variant-numeric:normal;font-feature-settings:normal;text-align:start;letter-spacing:0px;word-spacing:0px;writing-mode:lr-tb;text-anchor:start;fill:#000000;fill-opacity:1;stroke:none"
       id="flowRoot969"
       xml:space="preserve"><flowRegion
         id="flowRegion971"><rect
           y="20.203051"
           x="-142.93658"
           height="325.26913"
           width="888.93427"
           id="rect973" /></flowRegion><flowPara
         id="flowPara975"></flowPara></flowRoot>    <g
       aria-label="C"
       style="font-style:normal;font-weight:normal;font-size:35.00642014px;line-height:1.25;font-family:sans-serif;letter-spacing:0px;word-spacing:0px;fill:#00aad4;fill-opacity:1;stroke:none;stroke-width:0.87516046"
       id="text867-5"
       transform="matrix(0.94329312,0,0,0.94329312,-2.5619191,-19.365716)">
      <path
         d="m -75.513735,-440.95171 6.785912,2.05116 q -0.683719,2.85453 -2.153715,4.76894 -1.469996,1.91442 -3.657898,2.88871 -2.170808,0.9743 -5.538125,0.9743 -4.085222,0 -6.683354,-1.17941 -2.58104,-1.19651 -4.461268,-4.18778 -1.880227,-2.99127 -1.880227,-7.65765 0,-6.22185 3.298944,-9.55498 3.316038,-3.35022 9.366953,-3.35022 4.734755,0 7.435445,1.91441 2.717784,1.91441 4.033943,5.87998 l -6.837191,1.52128 q -0.358953,-1.14523 -0.752091,-1.67511 -0.649533,-0.88884 -1.589647,-1.36744 -0.940114,-0.4786 -2.102437,-0.4786 -2.632318,0 -4.033943,2.11953 -1.059764,1.57255 -1.059764,4.93987 0,4.17068 1.26488,5.72614 1.264881,1.53837 3.55534,1.53837 2.222087,0 3.350224,-1.24779 1.145229,-1.24778 1.658019,-3.62371 z"
         style="font-style:normal;font-variant:normal;font-weight:normal;font-stretch:normal;font-size:35.00642014px;font-family:'Arial Black';-inkscape-font-specification:'Arial Black, Normal';font-variant-ligatures:normal;font-variant-caps:normal;font-variant-numeric:normal;font-feature-settings:normal;text-align:start;writing-mode:lr-tb;text-anchor:start;fill:#00aad4;stroke-width:0.87516046"
         id="path1084"
         inkscape:connector-curvature="0" />
    </g>
    <g
       aria-label="G"
       style="font-style:normal;font-weight:normal;font-size:35.00642014px;line-height:1.25;font-family:sans-serif;letter-spacing:0px;word-spacing:0px;fill:#ffc113;fill-opacity:1;stroke:none;stroke-width:0.87516046"
       id="text867-6"
       transform="matrix(0.94329312,0,0,0.94329312,-5.8269396,-21.080254)">
      <path
         d="m -76.658993,-364.68663 v -5.21336 h 11.965085 v 10.68311 q -3.435689,2.34174 -6.0851,3.19639 -2.632319,0.83755 -6.256031,0.83755 -4.461267,0 -7.281608,-1.52127 -2.803249,-1.52128 -4.35871,-4.52964 -1.538368,-3.00836 -1.538368,-6.90556 0,-4.10232 1.692205,-7.12778 1.692205,-3.04255 4.956964,-4.6151 2.546853,-1.2136 6.854284,-1.2136 4.153594,0 6.204751,0.75209 2.068251,0.75209 3.418596,2.34174 1.367438,1.57255 2.051157,3.99976 l -7.469631,1.33325 q -0.461511,-1.41872 -1.572554,-2.17081 -1.093951,-0.75209 -2.803249,-0.75209 -2.546854,0 -4.068129,1.77767 -1.504182,1.76057 -1.504182,5.5894 0,4.06813 1.521275,5.81161 1.538368,1.74349 4.273245,1.74349 1.299066,0 2.478482,-0.37605 1.179415,-0.37604 2.70069,-1.28197 v -2.35883 z"
         style="font-style:normal;font-variant:normal;font-weight:normal;font-stretch:normal;font-size:35.00642014px;font-family:'Arial Black';-inkscape-font-specification:'Arial Black, Normal';font-variant-ligatures:normal;font-variant-caps:normal;font-variant-numeric:normal;font-feature-settings:normal;text-align:start;writing-mode:lr-tb;text-anchor:start;fill:#ffc113;fill-opacity:1;stroke-width:0.87516046"
         id="path1090"
         inkscape:connector-curvature="0" />
    </g>
  </g>
</svg>
